<svg width="30" height="16" viewBox="0 0 30 16" fill="none" xmlns="http://www.w3.org/2000/svg">
<g clip-path="url(#clip0_257_159)">
<path d="M22.595 15.999H3.405C1.527 15.999 0 14.471 0 12.594V3.405C0 1.528 1.527 0 3.405 0H22.594C24.472 0 25.999 1.528 25.999 3.405V12.594C25.999 14.471 24.473 15.999 22.595 15.999ZM3.405 1.999C2.631 1.999 2 2.629 2 3.404V12.593C2 13.368 2.631 13.998 3.405 13.998H22.594C23.368 13.998 23.999 13.368 23.999 12.593V3.404C23.999 2.629 23.368 1.999 22.594 1.999H3.405Z" fill="black"/>
<path d="M30 5H28V10.9999H30V5Z" fill="black"/>
</g>
<defs>
<clipPath id="clip0_257_159">
<rect width="30" height="16" fill="white"/>
</clipPath>
</defs>
</svg>
