<svg width="30" height="30" viewBox="0 0 30 30" fill="none" xmlns="http://www.w3.org/2000/svg">
<path d="M25.001 25H23.001V22.292C23.001 21.028 21.973 20 20.709 20H9.292C8.028 20 7 21.028 7 22.292V25H5V22.292C5 19.926 6.925 18 9.292 18H20.709C23.075 18 25.001 19.926 25.001 22.292V25Z" fill="white"/>
<path d="M25 30H5C2.243 30 0 27.757 0 25V5C0 2.243 2.243 0 5 0H25C27.757 0 30 2.243 30 5V25C30 27.757 27.757 30 25 30ZM5 2C3.346 2 2 3.346 2 5V25C2 26.654 3.346 28 5 28H25C26.654 28 28 26.654 28 25V5C28 3.346 26.654 2 25 2H5Z" fill="white"/>
<path d="M15 17C12.243 17 10 14.757 10 12V10C10 7.243 12.243 5 15 5C17.757 5 20 7.243 20 10V12C20 14.757 17.757 17 15 17ZM15 7C13.346 7 12 8.346 12 10V12C12 13.654 13.346 15 15 15C16.654 15 18 13.654 18 12V10C18 8.346 16.654 7 15 7Z" fill="white"/>
</svg>
