<svg width="91" height="111" viewBox="0 0 91 111" fill="none" xmlns="http://www.w3.org/2000/svg">
<g clip-path="url(#clip0_257_133)">
<path d="M90.8817 77.5794C90.9167 76.6854 90.768 75.7937 90.4446 74.9595C90.1212 74.1252 89.6301 73.3662 89.0017 72.7294C86.9317 70.7294 83.3417 69.8694 77.0017 69.9894C70.4752 70.2732 63.99 71.1705 57.6317 72.6694C53.6349 73.5407 49.6944 74.6528 45.8317 75.9994C42.8317 76.9994 40.7617 77.7094 38.3517 77.7094H38.2617C37.4894 77.7511 36.719 77.5992 36.0204 77.2674C35.3218 76.9356 34.7172 76.4344 34.2617 75.8094C33.8265 75.1187 33.5671 74.332 33.5061 73.5179C33.4451 72.7039 33.5844 71.8872 33.9117 71.1394C35.5089 66.7809 36.1202 62.1225 35.7017 57.4994C35.0417 51.0494 31.8317 47.3394 26.8817 47.2994C26.1083 47.2519 25.3336 47.3681 24.6082 47.6404C23.8827 47.9126 23.2229 48.3348 22.6717 48.8794C20.8617 50.7594 20.8317 53.6194 20.9617 56.6294C21.0717 59.3694 18.0917 62.1594 16.3117 63.8294C12.3117 67.6094 9.23169 73.1294 8.56169 77.8894C8.46169 78.5994 8.39169 79.2494 8.32169 79.8894C8.30774 80.9486 8.08694 81.9949 7.67169 82.9694C5.67603 84.7686 3.57569 86.4482 1.38169 87.9994C1.16939 88.1564 0.990286 88.3539 0.854695 88.5804C0.719105 88.807 0.629717 89.0581 0.591685 89.3194C0.591685 89.5694 -0.218314 95.4594 5.74169 103.029C10.0117 108.459 16.1117 110.909 20.0417 110.909H20.1817C20.7705 110.964 21.3639 110.878 21.9132 110.659C22.4625 110.44 22.9521 110.094 23.3417 109.649C24.3417 108.259 28.2117 104.059 29.7417 103.239C33.6117 101.149 37.5117 99.2394 41.0217 97.6894C49.3217 97.5294 70.5117 97.3894 75.3117 98.5794C76.1161 98.781 76.9424 98.8818 77.7717 98.8794C81.3817 98.8794 85.1417 97.0694 86.3017 93.3894C86.699 92.3385 86.8706 91.2156 86.8051 90.0939C86.7396 88.9723 86.4386 87.877 85.9217 86.8794C85.5406 86.2036 85.0546 85.5926 84.4817 85.0694C89.6317 83.3494 90.8617 80.1694 90.8817 77.5794ZM82.4917 92.1894C81.7917 94.3994 78.6517 95.2894 76.2817 94.6994C72.3417 93.6994 60.1517 93.5594 51.0817 93.5894L52.0217 93.2394C60.5698 89.9918 69.44 87.6653 78.4817 86.2994C80.4817 86.8794 81.8217 87.7394 82.4117 88.8094C82.655 89.3375 82.7876 89.9098 82.8014 90.4911C82.8151 91.0724 82.7097 91.6504 82.4917 92.1894ZM80.3317 81.9994C64.2617 84.4594 55.7317 87.6394 50.6317 89.5394L49.1217 89.9994C41.8171 92.7399 34.7073 95.974 27.8417 99.6794C25.5117 100.929 21.6417 105.349 20.4117 106.869C18.7817 107.099 13.0217 105.789 8.88169 100.519C5.17169 95.8094 4.60169 92.1194 4.54169 90.6094C6.42169 89.1994 9.98169 86.4694 10.8517 85.3494C11.8517 83.9994 12.0817 82.3494 12.3217 80.2694C12.3817 79.7094 12.4517 79.0994 12.5417 78.4294C13.0917 74.5694 15.7117 69.8694 19.0717 66.7294C21.2017 64.7294 25.1717 61.0094 24.9717 56.4394C24.9117 55.0394 24.8017 52.4394 25.5717 51.6394C25.6617 51.5494 25.9217 51.2794 26.8417 51.2794C29.6317 51.2794 31.2717 53.5194 31.7117 57.8894C32.0923 61.9025 31.5766 65.95 30.2017 69.7394C29.6419 71.0905 29.4221 72.5583 29.5616 74.0141C29.701 75.4698 30.1955 76.8692 31.0017 78.0894C31.8208 79.2447 32.9114 80.1809 34.1773 80.8156C35.4433 81.4503 36.8459 81.7641 38.2617 81.7294C41.3817 81.7294 43.7917 80.9394 47.1317 79.8194C50.8815 78.505 54.7087 77.4229 58.5917 76.5794C64.6864 75.1351 70.9041 74.2713 77.1617 73.9994C82.0217 73.9094 85.0617 74.4394 86.2217 75.5894C86.4723 75.8535 86.6614 76.1698 86.7755 76.5155C86.8896 76.8613 86.9259 77.228 86.8817 77.5894C86.8717 78.3894 86.8517 80.9994 80.3317 81.9994Z" fill="black"/>
<path d="M19.7188 36.9987C19.8688 36.9987 35.1387 39.2788 41.4387 45.5788C47.7387 51.8788 49.9987 67.1287 49.9987 67.2787C49.9987 67.8091 50.2094 68.3178 50.5845 68.6929C50.9595 69.068 51.4682 69.2787 51.9987 69.2787C52.5291 69.2787 53.0378 69.068 53.4129 68.6929C53.788 68.3178 53.9987 67.8091 53.9987 67.2787C53.9987 67.1287 56.2788 51.8588 62.5788 45.5588C68.8788 39.2587 84.1287 36.9987 84.2787 36.9987C84.8091 36.9987 85.3178 36.788 85.6929 36.4129C86.068 36.0378 86.2787 35.5291 86.2787 34.9987C86.2787 34.4683 86.068 33.9596 85.6929 33.5845C85.3178 33.2094 84.8091 32.9987 84.2787 32.9987C84.1287 32.9987 68.8588 30.7187 62.5588 24.4187C56.2588 18.1187 53.9987 2.86875 53.9987 2.71875C53.9987 2.18832 53.788 1.67961 53.4129 1.30454C53.0378 0.929464 52.5291 0.71875 51.9987 0.71875C51.4682 0.71875 50.9595 0.929464 50.5845 1.30454C50.2094 1.67961 49.9987 2.18832 49.9987 2.71875C49.9987 2.86875 47.7187 18.1387 41.4187 24.4387C35.1187 30.7387 19.8688 32.9987 19.7188 32.9987C19.1883 32.9987 18.6796 33.2094 18.3046 33.5845C17.9295 33.9596 17.7188 34.4683 17.7188 34.9987C17.7188 35.5291 17.9295 36.0378 18.3046 36.4129C18.6796 36.788 19.1883 36.9987 19.7188 36.9987ZM44.2688 27.2887C48.0488 23.5087 50.5087 17.2887 51.9987 12.1787C53.4887 17.3187 55.9988 23.5087 59.7288 27.2887C63.4588 31.0687 69.7287 33.5287 74.8387 35.0187C69.6887 36.5087 63.5088 39.0187 59.7288 42.7487C55.9488 46.4787 53.4887 52.6987 51.9987 57.8387C50.5087 52.6987 47.9988 46.5087 44.2688 42.7287C40.5388 38.9487 34.2688 36.4887 29.1588 34.9987C34.3088 33.5087 40.4888 31.0487 44.2688 27.2687V27.2887Z" fill="black"/>
<path d="M69.9994 19.0003C70.529 18.9981 71.0361 18.7859 71.4094 18.4103L75.4094 14.4103C75.7371 14.0277 75.9083 13.5355 75.8888 13.0322C75.8694 12.5288 75.6607 12.0514 75.3045 11.6952C74.9483 11.339 74.4709 11.1303 73.9675 11.1109C73.4642 11.0914 72.972 11.2626 72.5894 11.5903L68.5894 15.5903C68.3114 15.87 68.1223 16.2256 68.0458 16.6124C67.9693 16.9993 68.0089 17.4001 68.1596 17.7645C68.3103 18.129 68.5653 18.4407 68.8927 18.6606C69.22 18.8805 69.6051 18.9986 69.9994 19.0003Z" fill="black"/>
<path d="M68.5894 51.5894C68.2169 51.9641 68.0078 52.471 68.0078 52.9994C68.0078 53.5278 68.2169 54.0347 68.5894 54.4094L72.5894 58.4094C72.972 58.7371 73.4641 58.9083 73.9675 58.8888C74.4708 58.8694 74.9483 58.6607 75.3045 58.3045C75.6607 57.9483 75.8694 57.4709 75.8888 56.9675C75.9082 56.4642 75.737 55.972 75.4094 55.5894L71.4094 51.5894C71.0347 51.2169 70.5278 51.0078 69.9994 51.0078C69.471 51.0078 68.9641 51.2169 68.5894 51.5894Z" fill="black"/>
<path d="M32.5903 18.4103C32.9729 18.738 33.4651 18.9092 33.9685 18.8897C34.4718 18.8703 34.9493 18.6616 35.3055 18.3054C35.6617 17.9492 35.8703 17.4718 35.8898 16.9684C35.9092 16.4651 35.738 15.9729 35.4103 15.5903L31.4103 11.5903C31.0277 11.2626 30.5356 11.0914 30.0322 11.1109C29.5289 11.1303 29.0514 11.339 28.6952 11.6952C28.339 12.0514 28.1304 12.5288 28.1109 13.0322C28.0915 13.5355 28.2627 14.0277 28.5903 14.4103L32.5903 18.4103Z" fill="black"/>
</g>
<defs>
<clipPath id="clip0_257_133">
<rect width="91" height="111" fill="white"/>
</clipPath>
</defs>
</svg>
